<?xml version="1.0" standalone="no"?>
<!DOCTYPE svg PUBLIC "-//W3C//DTD SVG 1.1//EN" "http://www.w3.org/Graphics/SVG/1.1/DTD/svg11.dtd" >
<svg xmlns="http://www.w3.org/2000/svg">
<metadata>Generated by IcoMoon</metadata>
<defs>
<font id="icons" horiz-adv-x="1024">
<font-face units-per-em="1024" ascent="960" descent="-64" />
<missing-glyph horiz-adv-x="1024" />
<glyph unicode="&#x20;" horiz-adv-x="512" d="" />
<glyph unicode="&#xe900;" glyph-name="clock" d="M928 448c0-229.75-186.25-416-416-416s-416 186.25-416 416v0c0 229.75 186.25 416 416 416s416-186.25 416-416v0zM0 448c0-282.77 229.23-512 512-512s512 229.23 512 512v0c0 282.77-229.23 512-512 512s-512-229.23-512-512v0zM464 720v-272c0-16 8-31 21.4-40l192-128c22-14.8 51.8-8.8 66.6 13.4s8.8 51.8-13.4 66.6l-170.6 113.6v246.4c0 26.6-21.4 48-48 48s-48-21.4-48-48z" />
<glyph unicode="&#xe901;" glyph-name="earth" d="M111.4 560.6l61.8-61.8c12-12 28.2-18.8 45.2-18.8h43c17 0 33.2-6.8 45.2-18.8l58.6-58.6c12-12 18.8-28.2 18.8-45.2v-75c0-17 6.8-33.2 18.8-45.2l26.6-26.6c12-12 18.8-28.2 18.8-45.2v-37.4c0-35.4 28.6-64 64-64s64 28.6 64 64v5.4c0 17 6.8 33.2 18.8 45.2l90.6 90.6c12 12 18.8 28.2 18.8 45.2v69.4c0 35.4-28.6 64-64 64h-165.4c-17 0-33.2 6.8-45.2 18.8l-32 32c-8.4 8.4-13.2 20-13.2 32 0 25 20.2 45.2 45.2 45.2h69.4c25 0 45.2 20.2 45.2 45.2 0 12-4.8 23.6-13.2 32l-39.4 39.4c-7.8 7.6-11.8 17.4-11.8 27.6s4 20 11.4 27.4l34.6 34.6c11.6 11.6 18.2 27.4 18.2 43.8 0 14.4-4.8 27.4-12.8 37.8-6.4 0.2-12.8 0.4-19.2 0.4-190.8 0-351.4-128.4-400.6-303.4zM928 448c0 69.2-16.8 134.4-46.8 191.6-12.8-1.8-25.4-7.8-35.8-18.2l-26.8-26.8c-12-12-18.8-28.2-18.8-45.2v-69.4c0-35.4 28.6-64 64-64h48.2c5 0 10 0.6 14.6 1.6 0.8 10 1 20.2 1 30.4zM0 448c0 282.77 229.23 512 512 512s512-229.23 512-512v0c0-282.77-229.23-512-512-512s-512 229.23-512 512v0z" />
<glyph unicode="&#xe902;" glyph-name="laptop" horiz-adv-x="1280" d="M256 896c-70.6 0-128-57.4-128-128v-480h128v480h768v-480h128v480c0 70.6-57.4 128-128 128h-768zM38.4 192c-21.2 0-38.4-17.2-38.4-38.4 0-84.8 68.8-153.6 153.6-153.6h972.8c84.8 0 153.6 68.8 153.6 153.6 0 21.2-17.2 38.4-38.4 38.4h-1203.2z" />
<glyph unicode="&#xe903;" glyph-name="inbox" d="M183.6 896c-63.8 0-117.8-46.8-126.8-109.8l-55.6-388.6c-0.8-6-1.2-12-1.2-18.2v-251.4c0-70.6 57.4-128 128-128h768c70.6 0 128 57.4 128 128v251.4c0 6-0.4 12.2-1.2 18.2l-55.6 388.6c-9 63-63 109.8-126.8 109.8h-656.8zM183.6 768h657l54.8-384h-119.8c-24.2 0-46.4-13.6-57.2-35.4l-28.6-57.2c-10.8-21.6-33-35.4-57.2-35.4h-240.8c-24.2 0-46.4 13.6-57.2 35.4l-28.6 57.2c-10.8 21.6-33 35.4-57.2 35.4h-120.2l55 384z" />
<glyph unicode="&#xe904;" glyph-name="message" d="M407.4-65.8s0 0 0 0l-75.6-53.4c-14.6-10.4-33.8-11.6-49.8-3.4s-26 24.6-26 42.6v144h-64c-106 0-192 86-192 192v448c0 106 86 192 192 192h640c106 0 192-86 192-192v-448c0-106-86-192-192-192h-240.8l-183.8-129.8zM536 142.4c16.2 11.4 35.6 17.6 55.4 17.6h240.6c53 0 96 43 96 96v448c0 53-43 96-96 96h-640c-53 0-96-43-96-96v-448c0-53 43-96 96-96h112c20.8 0 38.6-13.2 45.2-31.8 1.8-5 2.8-10.4 2.8-16.2v-99.4c65.4 46.2 126.6 89.4 183.8 129.8z" />
<glyph unicode="&#xe905;" glyph-name="moon" d="M478.6 862.6c-214.2-17-382.6-196.2-382.6-414.6 0-229.8 186.2-416 416-416 66.6 0 129.4 15.6 185.2 43.4-206.8 46.8-361.2 231.6-361.2 452.6 0 131.6 54.8 250.2 142.6 334.6zM0 448c0 282.8 229.2 512 512 512 38.8 0 76.8-4.4 113.4-12.6 19.8-4.4 34.6-21 37-41s-8-39.6-26.2-48.8c-121.2-60.4-204.2-185.4-204.2-329.6 0-203.2 164.8-368 368-368 10 0 19.8 0.4 29.6 1.2 20.2 1.6 39.2-9.6 47.6-28.2s4-40.2-10.6-54.2c-92-88.4-217-142.8-354.6-142.8-282.8 0-512 229.2-512 512z" />
<glyph unicode="&#xe906;" glyph-name="sun" d="M512 1024c16 0 30.8-8 39.8-21.2l117.6-174.8 206.8 40.4c15.6 3 31.8-1.8 43.2-13.2s16.2-27.6 13.2-43.2l-40.6-206.6 174.8-117.6c13.2-8.8 21.2-23.8 21.2-39.8s-8-30.8-21.2-39.8l-174.8-117.6 40.4-206.6c3-15.6-1.8-31.8-13.2-43.2s-27.6-16.2-43.2-13.2l-206.6 40.4-117.6-174.8c-9-13.2-23.8-21.2-39.8-21.2s-30.8 8-39.8 21.2l-117.6 174.8-206.8-40.4c-15.6-3-31.8 1.8-43.2 13.2s-16.2 27.6-13.2 43.2l40.6 206.6-174.8 117.6c-13.2 9-21.2 23.8-21.2 39.8s8 30.8 21.2 39.8l174.8 117.6-40.4 206.8c-3 15.6 1.8 31.8 13.2 43.2s27.6 16.2 43.2 13.2l206.6-40.4 117.6 174.8 3.6 4.6c9 10.4 22.2 16.4 36.2 16.4zM416.4 748c-10.8-16-30-24-49-20.4l-168 32.8 32.8-168c3.6-19-4.4-38.2-20.4-49l-141.8-95.4 142-95.6c16-10.8 24-30 20.4-49l-32.8-168 168 32.8 7 0.8c16.6 0.8 32.6-7.2 42-21.2l95.6-142 95.6 142 4.4 5.6c11.2 12.2 28 18 44.6 14.6l168-32.8-32.8 168c-3.6 19 4.4 38.2 20.4 49l142 95.6-142 95.6c-16 10.8-24 30-20.4 49l32.8 168-168-32.8c-19-3.6-38.2 4.4-49 20.4l-95.6 142-95.6-142zM512 208c-132.548 0-240 107.452-240 240s107.452 240 240 240v0c132.548 0 240-107.452 240-240s-107.452-240-240-240v0zM512 592c-79.529 0-144-64.471-144-144s64.471-144 144-144v0c79.529 0 144 64.471 144 144s-64.471 144-144 144v0z" />
<glyph unicode="&#xe907;" glyph-name="fingerprint" d="M96 448c0 229.8 186.2 416 416 416 126.2 0 239.2-56.2 315.6-145 17.2-20.2 47.6-22.4 67.6-5.2s22.4 47.6 5.2 67.6c-93.8 109.4-233 178.6-388.4 178.6-282.8 0-512-229.2-512-512v-80c0-26.6 21.4-48 48-48s48 21.4 48 48v80zM1013 553.8c-5.4 26-31 42.6-56.8 37s-42.6-31-37-56.8c5.8-27.8 9-56.6 9-86.2v-80c0-26.6 21.4-48 48-48s48 21.4 48 48v80c0 36.2-3.8 71.6-11 105.8zM512 800c-38 0-74.8-6-109-17.2-30.4-10-37.4-47.4-16.6-71.8 14.2-16.6 37.6-21.6 58.8-15.8s43.6 8.8 66.8 8.8c141.4 0 256-114.6 256-256v-49.8c0-50.4-3-100.6-8.8-150.6-3.4-29.2 18.8-55.6 48.4-55.6 23.6 0 43.8 17.2 46.6 40.6 6.6 54.8 10 110 10 165.4v49.8c0 194.4-157.6 352-352 352zM301.4 662.6c-18.2 21.2-50.6 22.8-67.8 0.8-46.2-59.6-73.6-134.2-73.6-215.4v-49.8c0-48.4-5.2-96.8-15.6-143.8-6.8-31.2 15.8-62.2 47.8-62.2 21 0 39.8 14 44.4 34.6 12.8 56.2 19.4 113.6 19.4 171.6v49.8c0 54.4 17 104.8 45.8 146.2 14.4 20.8 16 49.2-0.4 68.4zM512 640c-106 0-192-86-192-192v-49.8c0-71.8-9.2-143-27.6-212.2-7.6-28.6 13.4-58 43-58 19 0 35.8 12.4 40.8 30.8 21 78 31.8 158.4 31.8 239.4v49.8c0 57.4 46.6 104 104 104s104-46.6 104-104v-49.8c0-72.6-7-144.8-20.8-215.8-5.4-27.8 15.4-54.4 43.6-54.4 20.4 0 38 14 42 34 15.4 77.6 23.2 156.6 23.2 236.2v49.8c0 106-86 192-192 192zM560 448c0 26.6-21.4 48-48 48s-48-21.4-48-48v-49.8c0-119.8-22-238.6-65-350.4l-11.8-30.6c-9.6-24.8 2.8-52.6 27.6-62s52.6 2.8 62 27.6l11.8 30.6c47.2 122.8 71.4 253.2 71.4 384.8v49.8z" />
<glyph unicode="&#xe908;" glyph-name="language" horiz-adv-x="1152" d="M320 960c35.4 0 64-28.6 64-64v-64h256c35.4 0 64-28.6 64-64s-28.6-64-64-64h-19.2l-16.8-46.2c-32.8-90.4-82.2-173-144.4-244 28.4-17.6 58-33.2 88.8-47l100.8-44.8 124.4 280c10.2 23.2 33.2 38 58.4 38s48.2-14.8 58.4-38l256-576c14.4-32.4-0.2-70.2-32.4-84.4s-70.2 0.2-84.4 32.4l-40 90h-315l-40-90c-14.4-32.4-52.2-46.8-84.4-32.4s-46.8 52.2-32.4 84.4l79.6 179-100.8 44.8c-46 20.4-90 44.8-131.6 72.8-42.6-34.4-89.2-64.4-139-89.4l-69.4-34.4c-31.6-15.8-70-3-85.8 28.6s-3 70 28.6 85.8l69 34.6c32.6 16.4 63.6 35.4 92.8 56.6-27.6 25.4-53.6 52.8-77.8 81.8l-20.2 24.4c-22.6 27.2-19 67.6 8.2 90.2s67.6 19 90.2-8.2l20.4-24.4c23-27.8 48.2-53.6 74.8-77.4 55 60.8 98.4 132.2 127 210.8l1 2.4h-420.6c-35.6 0-64.2 28.6-64.2 64s28.6 64 64 64h192v64c0 35.4 28.6 64 64 64zM832 418.4l-100.6-226.4h201.2l-100.6 226.4z" />
<glyph unicode="&#xe909;" glyph-name="code" horiz-adv-x="1152" d="M721.6 957.6c-34 9.8-69.4-10-79.2-44l-256-896c-9.8-34 10-69.4 44-79.2s69.4 10 79.2 44l256 896c9.8 34-10 69.4-44 79.2zM850.8 685.4c-25-25-25-65.6 0-90.6l146.8-146.8-146.8-146.8c-25-25-25-65.6 0-90.6s65.6-25 90.6 0l192 192c25 25 25 65.6 0 90.6l-192 192c-25 25-65.6 25-90.6 0zM301.4 685.4c-25 25-65.6 25-90.6 0l-192-192c-25-25-25-65.6 0-90.6l192-192c25-25 65.6-25 90.6 0s25 65.6 0 90.6l-146.8 146.6 146.6 146.8c25 25 25 65.6 0 90.6z" />
<glyph unicode="&#xe90a;" glyph-name="redirect" d="M640 960c-35.4 0-64-28.6-64-64s28.6-64 64-64h165.4l-402.8-402.8c-25-25-25-65.6 0-90.6s65.6-25 90.6 0l402.8 402.8v-165.4c0-35.4 28.6-64 64-64s64 28.6 64 64v320c0 35.4-28.6 64-64 64h-320zM160 768c-88.4 0-160-71.6-160-160v-512c0-88.4 71.6-160 160-160h512c88.4 0 160 71.6 160 160v160c0 35.4-28.6 64-64 64s-64-28.6-64-64v-160c0-17.6-14.4-32-32-32h-512c-17.6 0-32 14.4-32 32v512c0 17.6 14.4 32 32 32h160c35.4 0 64 28.6 64 64s-28.6 64-64 64h-160z" />
<glyph unicode="&#xe90b;" glyph-name="arrows-rotate" d="M131.8 503c26.6 186 186.8 329 380.2 329 106 0 202-43 271.6-112.4 0.4-0.4 0.8-0.8 1.2-1.2l15.2-14.4h-95.8c-35.4 0-64-28.6-64-64s28.6-64 64-64h256c35.4 0 64 28.6 64 64v256c0 35.4-28.6 64-64 64s-64-28.6-64-64v-106.8l-22.6 21.4c-92.6 92.2-220.6 149.4-361.6 149.4-258 0-471.4-190.8-506.8-439-5-35 19.2-67.4 54.2-72.4s67.4 19.4 72.4 54.2zM1018.8 375c5 35-19.4 67.4-54.2 72.4s-67.4-19.4-72.4-54.2c-26.6-186-186.8-329-380.2-329-106 0-202 43-271.6 112.4-0.4 0.4-0.8 0.8-1.2 1.2l-15.2 14.4h95.8c35.4 0 64 28.6 64 64s-28.6 64-64 64l-255.8-0.2c-17 0-33.4-6.8-45.4-19s-18.8-28.4-18.6-45.6l2-254c0.2-35.4 29.2-63.8 64.6-63.4s63.8 29.2 63.4 64.6l-0.8 103 21.4-20.2c92.6-92.2 220.4-149.4 361.4-149.4 258 0 471.4 190.8 506.8 439z" />
<glyph unicode="&#xe90c;" glyph-name="arrow-rotate" d="M512 832c-113.6 0-215.8-49.4-286.2-128h94.2c35.4 0 64-28.6 64-64s-28.6-64-64-64h-256c-35.4 0-64 28.6-64 64v256c0 35.4 28.6 64 64 64s64-28.6 64-64v-109.4c93.8 106.2 231 173.4 384 173.4 282.8 0 512-229.2 512-512s-229.2-512-512-512c-174 0-327.8 86.8-420.2 219.4-20.2 29-13.2 68.8 15.8 89.2s68.8 13.2 89.2-15.8c69.6-99.6 184.8-164.6 315.2-164.6 212 0 384 172 384 384s-172 383.8-384 383.8z" />
<glyph unicode="&#xe90d;" glyph-name="arrow-down" horiz-adv-x="768" d="M338.8-45.2c25-25 65.6-25 90.6 0l320 320c25 25 25 65.6 0 90.6s-65.6 25-90.6 0l-210.8-210.8v741.4c0 35.4-28.6 64-64 64s-64-28.6-64-64v-741.4l-210.8 210.8c-25 25-65.6 25-90.6 0s-25-65.6 0-90.6l320-320z" />
<glyph unicode="&#xe90e;" glyph-name="arrow-left" d="M18.8 493.2c-25-25-25-65.6 0-90.6l320-320c25-25 65.6-25 90.6 0s25 65.6 0 90.6l-210.8 210.8h741.4c35.4 0 64 28.6 64 64s-28.6 64-64 64h-741.4l210.8 210.8c25 25 25 65.6 0 90.6s-65.6 25-90.6 0l-320-320z" />
<glyph unicode="&#xe90f;" glyph-name="arrow-right" d="M1005.2 402.8c25 25 25 65.6 0 90.6l-320 320c-25 25-65.6 25-90.6 0s-25-65.6 0-90.6l210.8-210.8h-741.4c-35.4 0-64-28.6-64-64s28.6-64 64-64h741.4l-210.8-210.8c-25-25-25-65.6 0-90.6s65.6-25 90.6 0l320 320z" />
<glyph unicode="&#xe910;" glyph-name="arrow-up" horiz-adv-x="768" d="M429.2 941.2c-25 25-65.6 25-90.6 0l-320-320c-25-25-25-65.6 0-90.6s65.6-25 90.6 0l210.8 210.8v-741.4c0-35.4 28.6-64 64-64s64 28.6 64 64v741.4l210.8-210.8c25-25 65.6-25 90.6 0s25 65.6 0 90.6l-320 320z" />
<glyph unicode="&#xe911;" glyph-name="chevron-down" horiz-adv-x="896" d="M402.8 146.8c25-25 65.6-25 90.6 0l384 384c25 25 25 65.6 0 90.6s-65.6 25-90.6 0l-338.8-338.8-338.8 338.6c-25 25-65.6 25-90.6 0s-25-65.6 0-90.6l384-384z" />
<glyph unicode="&#xe912;" glyph-name="chevron-left" horiz-adv-x="640" d="M18.8 493.2c-25-25-25-65.6 0-90.6l384-384c25-25 65.6-25 90.6 0s25 65.6 0 90.6l-338.8 338.8 338.6 338.8c25 25 25 65.6 0 90.6s-65.6 25-90.6 0l-384-384z" />
<glyph unicode="&#xe913;" glyph-name="chevron-right" horiz-adv-x="640" d="M622.2 493.2c25-25 25-65.6 0-90.6l-384-384c-25-25-65.6-25-90.6 0s-25 65.6 0 90.6l338.8 338.8-338.6 338.8c-25 25-25 65.6 0 90.6s65.6 25 90.6 0l384-384z" />
<glyph unicode="&#xe914;" glyph-name="chevron-up" horiz-adv-x="896" d="M402.8 749.2c25 25 65.6 25 90.6 0l384-384c25-25 25-65.6 0-90.6s-65.6-25-90.6 0l-338.8 338.8-338.8-338.6c-25-25-65.6-25-90.6 0s-25 65.6 0 90.6l384 384z" />
<glyph unicode="&#xe915;" glyph-name="x" horiz-adv-x="768" d="M110.2 813.2c-25 25-65.6 25-90.6 0s-25-65.6 0-90.6l274.8-274.6-274.6-274.8c-25-25-25-65.6 0-90.6s65.6-25 90.6 0l274.6 274.8 274.8-274.6c25-25 65.6-25 90.6 0s25 65.6 0 90.6l-274.8 274.6 274.6 274.8c25 25 25 65.6 0 90.6s-65.6 25-90.6 0l-274.6-274.8-274.8 274.6z" />
</font>
</defs>
</svg>
